<?xml version="1.0" encoding="UTF-8"?>
<svg width="200" height="200" viewBox="0 0 200 200" fill="none" xmlns="http://www.w3.org/2000/svg">
  <!-- Background Circle -->
  <circle cx="100" cy="100" r="90" fill="#4F46E5" opacity="0.1"/>
  
  <!-- Main Icon -->
  <path d="M100 40C66.8629 40 40 66.8629 40 100C40 133.137 66.8629 160 100 160C133.137 160 160 133.137 160 100C160 66.8629 133.137 40 100 40ZM100 150C72.3858 150 50 127.614 50 100C50 72.3858 72.3858 50 100 50C127.614 50 150 72.3858 150 100C150 127.614 127.614 150 100 150Z" fill="#4F46E5"/>
  
  <!-- Inner Elements -->
  <path d="M100 70C83.4315 70 70 83.4315 70 100C70 116.569 83.4315 130 100 130C116.569 130 130 116.569 130 100C130 83.4315 116.569 70 100 70ZM100 120C88.9543 120 80 111.046 80 100C80 88.9543 88.9543 80 100 80C111.046 80 120 88.9543 120 100C120 111.046 111.046 120 100 120Z" fill="#4F46E5"/>
  
  <!-- Center Dot -->
  <circle cx="100" cy="100" r="10" fill="#4F46E5"/>
  
  <!-- Decorative Lines -->
  <path d="M100 90L100 60" stroke="#4F46E5" stroke-width="4" stroke-linecap="round"/>
  <path d="M110 100L140 100" stroke="#4F46E5" stroke-width="4" stroke-linecap="round"/>
  <path d="M100 110L100 140" stroke="#4F46E5" stroke-width="4" stroke-linecap="round"/>
  <path d="M90 100L60 100" stroke="#4F46E5" stroke-width="4" stroke-linecap="round"/>
</svg>
